<svg width="1321" height="634" viewBox="0 0 1321 634" fill="none" xmlns="http://www.w3.org/2000/svg">
<path d="M128 542.908H138.353H148V600.5H138.353H128V542.908Z" fill="#FF1A1A"/>
<path d="M138.353 535V542.908M138.353 542.908H128V600.5H138.353M138.353 542.908H148V600.5H138.353M138.353 600.5V613" stroke="black" stroke-width="0.5"/>
<path d="M540 382.432H550.353H560V428.536H550.353H540V382.432Z" fill="#66FF58"/>
<path d="M550.353 360V382.432M550.353 382.432H540V428.536H550.353M550.353 382.432H560V428.536H550.353M550.353 428.536V434.5" stroke="black" stroke-width="0.5"/>
<path d="M985 138.432H995.353H1005L1005 264.536H995.353H985L985 138.432Z" fill="#66FF58"/>
<path d="M995.353 126V138.432M995.353 138.432H985L985 264.536H995.353M995.353 138.432H1005L1005 264.536H995.353M995.353 264.536V270.5" stroke="black" stroke-width="0.5"/>
<path d="M508 420.411H518.256H529V428.663H518.256H508V420.411Z" fill="#FF1A1A"/>
<path d="M518.256 411V420.411M518.256 420.411H508V428.663H518.256M518.256 420.411H529V428.663H518.256M518.256 428.663V441" stroke="black" stroke-width="0.5"/>
<path d="M412 443.985H422.353H432V540.271H422.353H412V443.985Z" fill="#66FF58"/>
<path d="M422.353 434.5V443.985M422.353 443.985H412V540.271H422.353M422.353 443.985H432V540.271H422.353M422.353 540.271V548" stroke="black" stroke-width="0.5"/>
<path d="M159 588.527H169.353H179V601.026H169.353H159V588.527Z" fill="#66FF58"/>
<path d="M169.353 581V588.527M169.353 588.527H159V601.026H169.353M169.353 588.527H179V601.026H169.353M169.353 601.026V608" stroke="black" stroke-width="0.5"/>
<path d="M477 420.266H487.353H497V440.634H487.353H477V420.266Z" fill="#66FF58"/>
<path d="M487.353 408V420.266M487.353 420.266H477V440.634H487.353M487.353 420.266H497V440.634H487.353M487.353 440.634V452" stroke="black" stroke-width="0.5"/>
<path d="M1048 118.005H1058.35H1068V146.243H1058.35H1048V118.005Z" fill="#66FF58"/>
<path d="M1058.35 101V118.005M1058.35 118.005H1048V146.243H1058.35M1058.35 118.005H1068V146.243H1058.35M1058.35 146.243V162" stroke="black" stroke-width="0.5"/>
<path d="M571 346.266H581.353H591V386H581.353H571V346.266Z" fill="#66FF58"/>
<path d="M581.353 341V346.266M581.353 346.266H571V386H581.353M581.353 346.266H591V386H581.353M581.353 386V397.366" stroke="black" stroke-width="0.5"/>
<path d="M571 346.266H581.353H591V386H581.353H571V346.266Z" fill="#66FF58"/>
<path d="M581.353 341V346.266M581.353 346.266H571V386H581.353M581.353 346.266H591V386H581.353M581.353 386V397.366" stroke="black" stroke-width="0.5"/>
<path d="M915 263.035H925.353H935V323.659H925.353H915V263.035Z" fill="#66FF58"/>
<path d="M925.353 255V263.035M925.353 263.035H915V323.659H925.353H935V263.035H925.353Z" stroke="black" stroke-width="0.5"/>
<path d="M350 501.987H360.353H370V521.893H360.353H350V501.987Z" fill="#66FF58"/>
<path d="M360.353 490V501.987M360.353 501.987H350V521.893H360.353M360.353 501.987H370V521.893H360.353M360.353 521.893V533" stroke="black" stroke-width="0.5"/>
<path d="M243 611.66L232.744 611.66L222 611.66L222 597.444L232.744 597.444L243 597.444L243 611.66Z" fill="#66FF58"/>
<path d="M232.744 634L232.744 611.66M232.744 611.66L243 611.66L243 597.444L232.744 597.444M232.744 611.66L222 611.66L222 597.444L232.744 597.444M232.744 597.444L232.744 587" stroke="black" stroke-width="0.5"/>
<path d="M211 612.827L200.744 612.827L190 612.827L190 590.444L200.744 590.444L211 590.444L211 612.827Z" fill="#FF1A1A"/>
<path d="M200.744 623.5L200.744 612.827M200.744 612.827L211 612.827L211 590.444L200.744 590.444M200.744 612.827L190 612.827L190 590.444L200.744 590.444M200.744 590.444L200.744 574" stroke="black" stroke-width="0.5"/>
<path d="M508 420.411H518.256H529V428.663H518.256H508V420.411Z" fill="#FF1A1A"/>
<path d="M518.256 411V420.411M518.256 420.411H508V428.663H518.256M518.256 420.411H529V428.663H518.256M518.256 428.663V441" stroke="black" stroke-width="0.5"/>
<path d="M1016 138.411H1026.26H1037V146.663H1026.26H1016V138.411Z" fill="#FF1A1A"/>
<path d="M1026.26 129V138.411M1026.26 138.411H1016V146.663H1026.26M1026.26 138.411H1037V146.663H1026.26M1026.26 146.663V159" stroke="black" stroke-width="0.5"/>
<path d="M508 420.411H518.256H529V428.663H518.256H508V420.411Z" fill="#FF1A1A"/>
<path d="M518.256 411V420.411M518.256 420.411H508V428.663H518.256M518.256 420.411H529V428.663H518.256M518.256 428.663V441" stroke="black" stroke-width="0.5"/>
<path d="M946 264.057H956.256H967V291.287H956.256H946V264.057Z" fill="#FF1A1A"/>
<path d="M956.256 235.5V264.057M956.256 264.057H946V291.287H956.256M956.256 264.057H967V291.287H956.256M956.256 291.287V304.5" stroke="black" stroke-width="0.5"/>
<path d="M63 517.053H74.2553H86V511.579H74.2553H63V517.053Z" fill="#66FF58"/>
<path d="M74.2553 528V517.053M74.2553 517.053H63V511.579H74.2553M74.2553 517.053H86V511.579H74.2553M74.2553 511.579V502" stroke="black" stroke-width="0.5"/>
<path d="M443 445.053H454.255H466V439.579H454.255H443V445.053Z" fill="#66FF58"/>
<path d="M454.255 456V445.053M454.255 445.053H443V439.579H454.255M454.255 445.053H466V439.579H454.255M454.255 439.579V430" stroke="black" stroke-width="0.5"/>
<path d="M307.5 548L296 548L284 548L284 552L296 552L307.5 552L307.5 548Z" fill="#FF1A1A"/>
<path d="M296 548L296 538M296 548L307.5 548L307.5 552L296 552M296 548L284 548L284 552L296 552M296 552L296 558" stroke="black" stroke-width="0.5"/>
<path d="M97 513.12H107.353H117V543.21H107.353H97V513.12Z" fill="#FF1A1A"/>
<path d="M107.353 495V513.12M107.353 513.12H97V543.21H107.353M107.353 513.12H117V543.21H107.353M107.353 543.21V560" stroke="black" stroke-width="0.5"/>
<path d="M381 502.465H391.353H401V538.11H391.353H381V502.465Z" fill="#FF1A1A"/>
<path d="M391.353 481V502.465M391.353 502.465H381V538.11H391.353M391.353 502.465H401V538.11H391.353M391.353 538.11V558" stroke="black" stroke-width="0.5"/>
<path d="M602 344.634H612.353H622V407.128H612.353H602V344.634Z" fill="#FF1A1A"/>
<path d="M612.353 332.5V344.634M612.353 344.634H602V407.128H612.353M612.353 344.634H622V407.128H612.353M612.353 407.128V428" stroke="black" stroke-width="0.5"/>
<path d="M664 400.132H674.353H684V442.012H674.353H664V400.132Z" fill="#FF1A1A"/>
<path d="M674.353 395.5V400.132M674.353 400.132H664V442.012H674.353M674.353 400.132H684V442.012H674.353M674.353 442.012V448" stroke="black" stroke-width="0.5"/>
<path d="M1 483.632H11.3529H21V525.512H11.3529H1V483.632Z" fill="#FF1A1A"/>
<path d="M11.3529 479V483.632M11.3529 483.632H1V525.512H11.3529M11.3529 483.632H21V525.512H11.3529M11.3529 525.512V531.5" stroke="black" stroke-width="0.5"/>
<path d="M319 551.5H329.435H339V520.5H329.435H319V551.5Z" fill="#66FF58"/>
<path d="M329.435 560V551.5M329.435 551.5H319V520.5H329.435M329.435 551.5H339V520.5H329.435M329.435 520.5V505" stroke="black" stroke-width="0.5"/>
<path d="M254 605.927H264.435H274V547.309H264.435H254V605.927Z" fill="#66FF58"/>
<path d="M264.435 616V605.927M264.435 605.927H254V547.309H264.435M264.435 605.927H274V547.309H264.435M264.435 547.309V540" stroke="black" stroke-width="0.5"/>
<path d="M32 526H42.4348H52V516.5H42.4348H32V526Z" fill="#66FF58"/>
<path d="M42.4348 556V526M42.4348 526H32V516.5H42.4348M42.4348 526H52V516.5H42.4348M42.4348 516.5V509" stroke="black" stroke-width="0.5"/>
<path d="M653 399L642.565 399L633 399L633 408.5L642.565 408.5L653 408.5L653 399Z" fill="#66FF58"/>
<path d="M642.565 369L642.565 399M642.565 399L653 399L653 408.5L642.565 408.5M642.565 399L633 399L633 408.5L642.565 408.5M642.565 408.5L642.565 416" stroke="black" stroke-width="0.5"/>
<path d="M850 324.266H860.353H870V364H860.353H850V324.266Z" fill="#66FF58"/>
<path d="M860.353 317.5V324.266M860.353 324.266H850V364H860.353M860.353 324.266H870V364H860.353M860.353 364V378" stroke="black" stroke-width="0.5"/>
<path d="M819 361.536H829.353H839V474H829.353H819V361.536Z" fill="#66FF58"/>
<path d="M829.353 346.5V361.536M829.353 361.536H819V474H829.353H839V361.536H829.353Z" stroke="black" stroke-width="0.5"/>
<path d="M788 472.556H798.353H808V499.037H798.353H788V472.556Z" fill="#66FF58"/>
<path d="M798.353 471V472.556M798.353 472.556H788V499.037H798.353M798.353 472.556H808V499.037H798.353M798.353 499.037V500" stroke="black" stroke-width="0.5"/>
<path d="M695 439.634H705.353H715V502.128H705.353H695V439.634Z" fill="#FF1A1A"/>
<path d="M705.353 427.5V439.634M705.353 439.634H695V502.128H705.353M705.353 439.634H715V502.128H705.353M705.353 502.128V523" stroke="black" stroke-width="0.5"/>
<path d="M881 325.359H892.255H904V315.492H892.255H881V325.359Z" fill="#66FF58"/>
<path d="M892.255 329V325.359M892.255 325.359H881V315.492H892.255M892.255 325.359H904V315.492H892.255M892.255 315.492V300" stroke="black" stroke-width="0.5"/>
<path d="M1172 106.527H1182.35H1192V119.026H1182.35H1172V106.527Z" fill="#66FF58"/>
<path d="M1182.35 99V106.527M1182.35 106.527H1172V119.026H1182.35M1182.35 106.527H1192V119.026H1182.35M1182.35 119.026V126" stroke="black" stroke-width="0.5"/>
<path d="M1224 106.66L1213.74 106.66L1203 106.66L1203 92.4444L1213.74 92.4444L1224 92.4444L1224 106.66Z" fill="#66FF58"/>
<path d="M1213.74 129L1213.74 106.66M1213.74 106.66L1224 106.66L1224 92.4444L1213.74 92.4444M1213.74 106.66L1203 106.66L1203 92.4444L1213.74 92.4444M1213.74 92.4444L1213.74 82" stroke="black" stroke-width="0.5"/>
<path d="M1161 119.827L1150.74 119.827L1140 119.827L1140 97.4444L1150.74 97.4444L1161 97.4444L1161 119.827Z" fill="#FF1A1A"/>
<path d="M1150.74 130.5L1150.74 119.827M1150.74 119.827L1161 119.827L1161 97.4444L1150.74 97.4444M1150.74 119.827L1140 119.827L1140 97.4444L1150.74 97.4444M1150.74 97.4444L1150.74 81" stroke="black" stroke-width="0.5"/>
<path d="M1288.5 43L1277 43L1265 43L1265 47L1277 47L1288.5 47L1288.5 43Z" fill="#FF1A1A"/>
<path d="M1277 43L1277 33M1277 43L1288.5 43L1288.5 47L1277 47M1277 43L1265 43L1265 47L1277 47M1277 47L1277 53" stroke="black" stroke-width="0.5"/>
<path d="M1300 46.5H1310.43H1320V15.5H1310.43H1300V46.5Z" fill="#66FF58"/>
<path d="M1310.43 55V46.5M1310.43 46.5H1300V15.5H1310.43M1310.43 46.5H1320V15.5H1310.43M1310.43 15.5V0" stroke="black" stroke-width="0.5"/>
<path d="M1235 100.927H1245.43H1255V42.3091H1245.43H1235V100.927Z" fill="#66FF58"/>
<path d="M1245.43 111V100.927M1245.43 100.927H1235V42.3091H1245.43M1245.43 100.927H1255V42.3091H1245.43M1245.43 42.3091V35" stroke="black" stroke-width="0.5"/>
<path d="M757 494.5H767.353H777V498H767.353H757V494.5Z" fill="#FF1A1A"/>
<path d="M767.353 493V494.5M767.353 494.5H757V498H767.353M767.353 494.5H777V498H767.353M767.353 498V505.375" stroke="black" stroke-width="0.5"/>
<path d="M1079 61.0346H1089.35H1099V121.659H1089.35H1079V61.0346Z" fill="#66FF58"/>
<path d="M1089.35 53V61.0346M1089.35 61.0346H1079V121.659H1089.35H1099V61.0346H1089.35Z" stroke="black" stroke-width="0.5"/>
<path d="M746 494L735.565 494L726 494L726 503.5L735.565 503.5L746 503.5L746 494Z" fill="#66FF58"/>
<path d="M735.565 464L735.565 494M735.565 494L746 494L746 503.5L735.565 503.5M735.565 494L726 494L726 503.5L735.565 503.5M735.565 503.5L735.565 511" stroke="black" stroke-width="0.5"/>
<path d="M1110 60.8664H1120.87H1131V96.3077H1120.87H1110V60.8664Z" fill="#FF1A1A"/>
<path d="M1120.87 56V60.8664M1120.87 60.8664H1110V96.3077H1120.87M1120.87 60.8664H1131V96.3077H1120.87M1120.87 96.3077V104" stroke="black" stroke-width="0.5"/>
</svg>
