<svg width="1544" height="1081" viewBox="0 0 1544 1081" fill="none" xmlns="http://www.w3.org/2000/svg">
<path d="M0 50L87.0482 49.8264L1504 47" stroke="#E6E6E6" stroke-width="3"/>
<path d="M0 12H87.1061H1505" stroke="#E6E6E6" stroke-width="3"/>
<path d="M0 97L87.0482 96.8308L1504 94.0764" stroke="#E6E6E6" stroke-width="3"/>
<path d="M0 144L87.0482 143.831L1504 141.076" stroke="#E6E6E6" stroke-width="3"/>
<path d="M0 191L87.0482 190.831L1504 188.076" stroke="#E6E6E6" stroke-width="3"/>
<path d="M0 238L87.0482 237.831L1504 235.076" stroke="#E6E6E6" stroke-width="3"/>
<path d="M0 285L87.0482 284.831L1504 282.076" stroke="#E6E6E6" stroke-width="3"/>
<path d="M0 332L87.0482 331.831L1504 329.076" stroke="#E6E6E6" stroke-width="3"/>
<path d="M0 379L87.0482 378.831L1504 376.076" stroke="#E6E6E6" stroke-width="3"/>
<path d="M0 426L87.0482 425.831L1504 423.076" stroke="#E6E6E6" stroke-width="3"/>
<path d="M0 473L87.0482 472.831L1504 470.076" stroke="#E6E6E6" stroke-width="3"/>
<path d="M0 520L87.0482 519.831L1504 517.076" stroke="#E6E6E6" stroke-width="3"/>
<path d="M0 567L87.0482 566.831L1504 564.076" stroke="#E6E6E6" stroke-width="3"/>
<path d="M0 614L87.0482 613.831L1504 611.076" stroke="#E6E6E6" stroke-width="3"/>
<path d="M0 661L87.0482 660.831L1504 658.076" stroke="#E6E6E6" stroke-width="3"/>
<path d="M0 708L87.0482 707.831L1504 705.076" stroke="#E6E6E6" stroke-width="3"/>
<path d="M0 755L87.0482 754.831L1504 752.076" stroke="#E6E6E6" stroke-width="3"/>
<path d="M0 802L87.0482 801.831L1504 799.076" stroke="#E6E6E6" stroke-width="3"/>
<path d="M0 849L87.0482 848.831L1504 846.076" stroke="#E6E6E6" stroke-width="3"/>
<path d="M0 896L87.0482 895.831L1504 893.076" stroke="#E6E6E6" stroke-width="3"/>
<path d="M0 943L87.0482 942.831L1504 940.076" stroke="#E6E6E6" stroke-width="3"/>
<path d="M0 990L87.0482 989.831L1504 987.076" stroke="#E6E6E6" stroke-width="3"/>
<path d="M0 1037L87.0482 1036.83L1504 1034.08" stroke="#E6E6E6" stroke-width="3"/>
<path d="M0 1080.92L87.0482 1080.75L1504 1078" stroke="#E6E6E6" stroke-width="3"/>
<path d="M-26 1084L78.1801 1083.83L1774 1081" stroke="#E6E6E6" stroke-width="3"/>
<path d="M799 12L799.174 115.543L802 1801" stroke="#E6E6E6" stroke-width="3"/>
<path d="M752 12L752.174 115.543L755 1801" stroke="#E6E6E6" stroke-width="3"/>
<path d="M705 12L705.174 115.543L708 1801" stroke="#E6E6E6" stroke-width="3"/>
<path d="M658 12L658.174 115.543L661 1801" stroke="#E6E6E6" stroke-width="3"/>
<path d="M611 12L611.174 115.543L614 1801" stroke="#E6E6E6" stroke-width="3"/>
<path d="M564 12L564.174 115.543L567 1801" stroke="#E6E6E6" stroke-width="3"/>
<path d="M517 12L517.174 115.543L520 1801" stroke="#E6E6E6" stroke-width="3"/>
<path d="M470 12L470.174 115.543L473 1801" stroke="#E6E6E6" stroke-width="3"/>
<path d="M423 12L423.174 115.543L426 1801" stroke="#E6E6E6" stroke-width="3"/>
<path d="M376 12L376.174 115.543L379 1801" stroke="#E6E6E6" stroke-width="3"/>
<path d="M329 12L329.174 115.543L332 1801" stroke="#E6E6E6" stroke-width="3"/>
<path d="M282 12L282.174 115.543L285 1801" stroke="#E6E6E6" stroke-width="3"/>
<path d="M235 12L235.174 115.543L238 1801" stroke="#E6E6E6" stroke-width="3"/>
<path d="M188 12L188.174 115.543L191 1801" stroke="#E6E6E6" stroke-width="3"/>
<path d="M141 12L141.174 115.543L144 1801" stroke="#E6E6E6" stroke-width="3"/>
<path d="M94 12L94.1736 115.543L96.9999 1801" stroke="#E6E6E6" stroke-width="3"/>
<path d="M50 12L50 115.543L50.0001 1801" stroke="#E6E6E6" stroke-width="3"/>
<path d="M0 12L0.173629 115.543L2.99992 1801" stroke="#E6E6E6" stroke-width="3"/>
<path d="M1410 12L1410.17 116.18L1413 1812" stroke="#E6E6E6" stroke-width="3"/>
<path d="M1363 12L1363.17 116.18L1366 1812" stroke="#E6E6E6" stroke-width="3"/>
<path d="M1316 12L1316.17 116.18L1319 1812" stroke="#E6E6E6" stroke-width="3"/>
<path d="M1269 12L1269.17 116.18L1272 1812" stroke="#E6E6E6" stroke-width="3"/>
<path d="M1222 12L1222.17 116.18L1225 1812" stroke="#E6E6E6" stroke-width="3"/>
<path d="M1175 12L1175.17 116.18L1178 1812" stroke="#E6E6E6" stroke-width="3"/>
<path d="M1128 12L1128.17 116.18L1131 1812" stroke="#E6E6E6" stroke-width="3"/>
<path d="M1081 12L1081.17 116.18L1084 1812" stroke="#E6E6E6" stroke-width="3"/>
<path d="M1034 12L1034.17 116.18L1037 1812" stroke="#E6E6E6" stroke-width="3"/>
<path d="M987 12L987.174 116.18L990 1812" stroke="#E6E6E6" stroke-width="3"/>
<path d="M940 12L940.174 116.18L943 1812" stroke="#E6E6E6" stroke-width="3"/>
<path d="M893 12L893.174 116.18L896 1812" stroke="#E6E6E6" stroke-width="3"/>
<path d="M846 12L846.174 116.18L849 1812" stroke="#E6E6E6" stroke-width="3"/>
<path d="M1505 12L1505.12 115.543L1507 1801" stroke="#E6E6E6" stroke-width="3"/>
<path d="M1457 12L1457.17 115.543L1460 1801" stroke="#E6E6E6" stroke-width="3"/>
</svg>
